HIERARCHY
ROOT Hips
{
 OFFSET 0.000000 0.000000 0.000000
 CHANNELS 6 Xposition Yposition Zposition Yrotation Xrotation Zrotation
 JOINT Chest
 {
  OFFSET 0.000000 9.910571 -0.011835
  CHANNELS 3 Yrotation Xrotation Zrotation
  JOINT Chest2
  {
   OFFSET 0.000000 10.789473 0.021497
   CHANNELS 3 Yrotation Xrotation Zrotation
   JOINT Chest3
   {
    OFFSET 0.000000 9.748205 0.000000
    CHANNELS 3 Yrotation Xrotation Zrotation
    JOINT Chest4
    {
     OFFSET 0.000000 9.748205 0.000000
     CHANNELS 3 Yrotation Xrotation Zrotation
     JOINT Neck
     {
      OFFSET 0.000000 13.998479 0.000000
      CHANNELS 3 Yrotation Xrotation Zrotation
      JOINT Head
      {
       OFFSET 0.000000 9.082285 0.051121
       CHANNELS 3 Yrotation Xrotation Zrotation
       End Site
       {
        OFFSET 0.000000 17.246134 0.026702
       }
      }
     }
     JOINT RightCollar
     {
      OFFSET -3.284495 7.824262 0.000000
      CHANNELS 3 Yrotation Xrotation Zrotation
      JOINT RightShoulder
      {
       OFFSET -15.534540 0.000000 0.000000
       CHANNELS 3 Yrotation Xrotation Zrotation
       JOINT RightElbow
       {
        OFFSET 0.000000 -28.251216 0.000000
        CHANNELS 3 Yrotation Xrotation Zrotation
        JOINT RightWrist
        {
         OFFSET 0.000000 -23.418114 0.012537
         CHANNELS 3 Yrotation Xrotation Zrotation
         End Site
         {
          OFFSET 0.000000 -17.723959 0.000000
         }
        }
       }
      }
     }
     JOINT LeftCollar
     {
      OFFSET 3.284495 7.824262 0.000000
      CHANNELS 3 Yrotation Xrotation Zrotation
      JOINT LeftShoulder
      {
       OFFSET 15.534540 0.000000 0.000000
       CHANNELS 3 Yrotation Xrotation Zrotation
       JOINT LeftElbow
       {
        OFFSET 0.000000 -28.251216 0.000000
        CHANNELS 3 Yrotation Xrotation Zrotation
        JOINT LeftWrist
        {
         OFFSET 0.000000 -23.418114 0.012537
         CHANNELS 3 Yrotation Xrotation Zrotation
         End Site
         {
          OFFSET 0.000000 -17.723959 0.000000
         }
        }
       }
      }
     }
    }
   }
  }
 }
 JOINT RightHip
 {
  OFFSET -8.142657 0.057990 0.005917
  CHANNELS 3 Yrotation Xrotation Zrotation
  JOINT RightKnee
  {
   OFFSET 0.000000 -49.716894 0.008478
   CHANNELS 3 Yrotation Xrotation Zrotation
   JOINT RightAnkle
   {
    OFFSET 0.000000 -43.994153 0.004166
    CHANNELS 3 Yrotation Xrotation Zrotation
    JOINT RightToe
    {
     OFFSET 0.000000 -7.619154 17.822051
     CHANNELS 3 Yrotation Xrotation Zrotation
     End Site
     {
      OFFSET 0.000000 -1.595627 7.159905
     }
    }
   }
  }
 }
 JOINT LeftHip
 {
  OFFSET 8.142657 0.057990 0.005917
  CHANNELS 3 Yrotation Xrotation Zrotation
  JOINT LeftKnee
  {
   OFFSET 0.000000 -49.716894 0.008478
   CHANNELS 3 Yrotation Xrotation Zrotation
   JOINT LeftAnkle
   {
    OFFSET 0.000000 -43.994153 0.004166
    CHANNELS 3 Yrotation Xrotation Zrotation
    JOINT LeftToe
    {
     OFFSET 0.000000 -7.619154 17.822051
     CHANNELS 3 Yrotation Xrotation Zrotation
     End Site
     {
      OFFSET 0.000000 -1.595627 7.159905
     }
    }
   }
  }
 }
}
MOTION
Frames: 11
Frame Time: 0.008333
245.410701 56.637552 264.119747 -53.861592 -55.692640 2.719435 -2.073335 21.269212 -1.657564 -0.780760 9.448113 -0.699127 -0.780760 9.448113 -0.699127 -0.573340 7.087000 -0.510982 1.680303 19.020753 1.009609 2.754586 -0.865178 1.311290 -1.270601 9.223906 12.721252 24.629019 -18.279593 -25.250846 -4.062664 -43.069826 35.038712 3.022432 -10.844803 -8.841420 -1.111133 10.751398 -9.907259 -8.248438 -19.116706 17.930362 21.834535 -47.013552 -30.963316 -3.464677 3.239401 -11.081303 -7.241378 -31.445421 -9.433146 -92.705007 73.837405 -108.203144 -3.487593 -4.739713 7.244967 0.076902 0.191252 0.056940 4.703070 -31.916915 11.830272 77.338748 85.321958 79.950967 -0.796145 0.961875 -1.136335 -0.085603 -0.166712 -0.025676
245.409939 56.639793 264.114482 -53.863230 -55.688595 2.714422 -2.069549 21.271150 -1.654377 -0.778253 9.448256 -0.699648 -0.778253 9.448256 -0.699648 -0.571456 7.087104 -0.511411 1.689993 19.021271 1.014053 2.770911 -0.864237 1.316336 -1.267253 9.224705 12.733529 24.632576 -18.279646 -25.253013 -4.083920 -43.069525 35.042673 3.045100 -10.788421 -8.824506 -1.118388 10.741158 -9.904536 -8.222376 -19.102797 17.920090 22.201466 -46.896567 -31.285444 -3.404829 3.468649 -11.032676 -7.248128 -31.448393 -9.423155 -92.703814 73.845546 -108.195552 -3.490126 -4.733850 7.229603 0.081485 0.198105 0.057049 4.693884 -31.921701 11.846777 77.307781 85.320946 79.913003 -0.805282 0.970291 -1.135981 -0.085836 -0.170465 -0.026794
245.409995 56.641003 264.110814 -53.862280 -55.685171 2.713223 -2.071959 21.272181 -1.657672 -0.778196 9.449125 -0.700454 -0.778196 9.449125 -0.700454 -0.571399 7.087757 -0.512014 1.701783 19.019312 1.017189 2.791504 -0.867867 1.318278 -1.267279 9.223244 12.739197 24.669581 -18.272464 -25.267800 -4.085141 -43.080439 35.024634 3.048208 -10.750738 -8.831775 -1.119283 10.728727 -9.910094 -8.190554 -19.087980 17.899716 22.687626 -46.733040 -31.646087 -3.367325 3.751049 -11.041096 -7.248198 -31.454075 -9.425601 -92.708888 73.848194 -108.196704 -3.475032 -4.723796 7.224699 0.075356 0.199091 0.051732 4.682761 -31.927370 11.856917 77.322347 85.321987 79.917627 -0.812032 0.979469 -1.135566 -0.083779 -0.175839 -0.027579
245.408983 56.640398 264.106568 -53.851880 -55.674273 2.701092 -2.071939 21.274306 -1.653068 -0.777913 9.450277 -0.699500 -0.777913 9.450277 -0.699500 -0.571201 7.088620 -0.511302 1.710864 19.007914 1.017657 2.808001 -0.889000 1.316060 -1.275475 9.212618 12.735959 24.716095 -18.258649 -25.277241 -4.067190 -43.093833 34.978144 3.057132 -10.725888 -8.845548 -1.119620 10.707889 -9.913661 -8.155821 -19.081271 17.863034 23.220229 -46.572052 -32.056131 -3.364147 4.066632 -11.128935 -7.262451 -31.466193 -9.415653 -92.702546 73.848887 -108.188381 -3.474204 -4.716847 7.210041 0.078360 0.204282 0.053746 4.666458 -31.941886 11.864788 77.345952 85.324109 79.936536 -0.806366 0.985005 -1.137763 -0.086714 -0.177820 -0.029394
245.409365 56.641705 264.104569 -53.844697 -55.672161 2.699514 -2.076289 21.277094 -1.657643 -0.779109 9.451976 -0.699699 -0.779109 9.451976 -0.699699 -0.572090 7.089895 -0.511430 1.723701 18.995200 1.018866 2.831144 -0.912569 1.313973 -1.273669 9.202101 12.727963 24.743114 -18.255000 -25.282425 -4.035731 -43.101492 34.943199 3.077553 -10.706761 -8.875624 -1.120855 10.691528 -9.918638 -8.116252 -19.072284 17.811793 23.762093 -46.397202 -32.406996 -3.410949 4.351208 -11.356688 -7.270121 -31.471213 -9.421128 -92.701089 73.854684 -108.187092 -3.466377 -4.709079 7.198151 0.075651 0.206393 0.053830 4.656646 -31.942963 11.866717 77.328366 85.323532 79.907861 -0.807059 0.987739 -1.134815 -0.088859 -0.177449 -0.030440
245.408798 56.642708 264.100855 -53.846561 -55.665065 2.696023 -2.074098 21.287449 -1.652169 -0.779277 9.457046 -0.697959 -0.779277 9.457046 -0.697959 -0.572235 7.093696 -0.510118 1.737276 18.974400 1.015401 2.857152 -0.951079 1.302960 -1.279165 9.175696 12.717866 24.775118 -18.254699 -25.290120 -4.000799 -43.109187 34.912688 3.087966 -10.682921 -8.922102 -1.132706 10.664549 -9.930475 -8.078879 -19.073631 17.769477 24.223415 -46.250838 -32.716660 -3.430250 4.616801 -11.619284 -7.273947 -31.478622 -9.406864 -92.695056 73.854889 -108.178748 -3.469814 -4.698419 7.182975 0.084986 0.208486 0.058777 4.653660 -31.949815 11.869156 77.327539 85.320410 79.907134 -0.797586 0.985752 -1.134898 -0.097546 -0.174542 -0.033712
245.409713 56.642608 264.098844 -53.855309 -55.654118 2.704830 -2.075380 21.296221 -1.656440 -0.779860 9.462128 -0.696960 -0.779860 9.462128 -0.696960 -0.572680 7.097507 -0.509353 1.750916 18.948643 1.010491 2.883761 -0.998767 1.289195 -1.276593 9.138774 12.716498 24.797862 -18.252457 -25.302138 -3.968899 -43.109620 34.887667 3.090275 -10.652279 -8.960991 -1.137716 10.632617 -9.941420 -8.038976 -19.069033 17.729615 24.623416 -46.110407 -32.942670 -3.439166 4.830760 -11.915021 -7.274885 -31.496682 -9.404724 -92.714682 73.859108 -108.200474 -3.465080 -4.690622 7.171836 0.086537 0.207482 0.058552 4.655748 -31.959194 11.869125 77.299070 85.318827 79.871632 -0.794739 0.987061 -1.133177 -0.101552 -0.172913 -0.034747
245.410356 56.643374 264.099140 -53.859925 -55.649068 2.712736 -2.084113 21.305600 -1.660353 -0.781840 9.466143 -0.696104 -0.781840 9.466143 -0.696104 -0.574169 7.100519 -0.508676 1.767838 18.922751 1.001214 2.917797 -1.046615 1.266357 -1.267461 9.109315 12.707528 24.822877 -18.246336 -25.308321 -3.954752 -43.104152 34.868367 3.085115 -10.618595 -9.008335 -1.142175 10.612940 -9.955490 -7.998768 -19.065468 17.701177 24.983508 -46.006925 -33.178470 -3.407685 5.042496 -12.144393 -7.271301 -31.503576 -9.416374 -92.721174 73.860181 -108.207004 -3.442904 -4.693729 7.173360 0.075932 0.212850 0.050037 4.658908 -31.963460 11.864957 77.294285 85.320727 79.865343 -0.796731 0.989346 -1.137825 -0.098813 -0.174976 -0.033018
245.410280 56.644394 264.099676 -53.867132 -55.648625 2.719575 -2.090086 21.309150 -1.662177 -0.783641 9.467208 -0.696051 -0.783641 9.467208 -0.696051 -0.575516 7.101320 -0.508606 1.785209 18.902175 0.993510 2.952156 -1.084608 1.246327 -1.252752 9.095349 12.704876 24.847518 -18.236993 -25.318726 -3.961242 -43.086428 34.859509 3.073899 -10.598855 -9.059355 -1.143200 10.608578 -9.970992 -7.969659 -19.058009 17.687908 25.320050 -45.894757 -33.374419 -3.392764 5.222509 -12.353020 -7.272144 -31.505122 -9.416406 -92.715785 73.857411 -108.205434 -3.434107 -4.692970 7.170646 0.075758 0.217314 0.047568 4.664531 -31.961964 11.861224 77.271725 85.325573 79.844938 -0.789712 0.986596 -1.140418 -0.099645 -0.173415 -0.034209
245.410153 56.645668 264.100099 -53.876223 -55.646310 2.728687 -2.092294 21.310716 -1.663756 -0.784371 9.467397 -0.696129 -0.784371 9.467397 -0.696129 -0.576061 7.101463 -0.508652 1.801944 18.881373 0.987884 2.984689 -1.123047 1.230293 -1.238826 9.087850 12.709487 24.868170 -18.225331 -25.332520 -3.982797 -43.073084 34.868898 3.054402 -10.572686 -9.120845 -1.151806 10.611802 -9.982080 -7.942777 -19.051892 17.678941 25.596053 -45.825936 -33.555589 -3.347603 5.405053 -12.501537 -7.270921 -31.509352 -9.416363 -92.709129 73.849094 -108.199692 -3.423499 -4.690828 7.160940 0.080135 0.220078 0.049513 4.669088 -31.959097 11.854238 77.215479 85.325006 79.788483 -0.771389 0.983573 -1.144073 -0.100087 -0.170080 -0.034935
245.409449 56.648160 264.099820 -53.882520 -55.647870 2.735891 -2.096266 21.314498 -1.664789 -0.786263 9.468954 -0.696994 -0.786263 9.468954 -0.696994 -0.577461 7.102634 -0.509268 1.819670 18.857058 0.982317 3.019040 -1.167997 1.213979 -1.223341 9.079966 12.711877 24.885357 -18.221136 -25.341976 -4.014421 -43.052468 34.887009 3.023196 -10.555322 -9.179879 -1.151664 10.609616 -9.993069 -7.935605 -19.045378 17.677426 25.799910 -45.759982 -33.658311 -3.306091 5.540873 -12.643690 -7.270195 -31.508867 -9.419265 -92.703014 73.846891 -108.192924 -3.414059 -4.686441 7.151708 0.081020 0.220817 0.050053 4.670062 -31.953505 11.852800 77.169110 85.325691 79.740704 -0.765930 0.984619 -1.148558 -0.096336 -0.170525 -0.034656
